<svg width="27" height="20" viewBox="0 0 27 20" fill="none" xmlns="http://www.w3.org/2000/svg">
<path fill-rule="evenodd" clip-rule="evenodd" d="M26.9794 2.45444V10.6214C26.9794 10.6214 25.2315 10.9658 24.8714 11.011C24.5125 11.0562 23.3844 11.4205 22.5669 10.6347C21.3062 9.42637 16.8269 4.97175 16.8269 4.97175C16.8269 4.97175 16.0545 4.2139 14.8145 4.86887C13.6761 5.46886 11.9887 6.34815 11.2838 6.69055C9.95141 7.39974 8.84707 6.27456 8.84707 5.41747C8.84707 4.75265 9.26193 4.30143 9.85495 3.9696C11.4621 2.99531 14.8495 1.09393 16.2604 0.344302C17.1179 -0.111813 17.7358 -0.150898 18.9132 0.840971C20.3633 2.06049 21.6537 3.17212 21.6537 3.17212C21.6537 3.17212 22.0746 3.52339 22.7459 3.38191C24.3942 3.03341 26.9794 2.45444 26.9794 2.45444ZM9.1505 16.2925C9.36742 15.7352 9.29491 15.1119 8.87903 14.6842C8.50533 14.3017 7.95972 14.2009 7.43948 14.3201C7.58499 13.8041 7.50464 13.2549 7.12893 12.8673C6.75408 12.4858 6.20951 12.383 5.68932 12.5033C5.83374 11.9881 5.75361 11.4389 5.37768 11.0525C4.78902 10.4487 3.7708 10.4746 3.1019 11.1122C2.43653 11.7507 2.0103 12.9074 2.60414 13.5883C3.197 14.2657 3.8782 13.8536 4.39752 13.7352C4.25304 14.2504 3.82017 14.7297 4.35326 15.4041C4.88586 16.0788 5.62727 15.6695 6.14713 15.5522C6.00217 16.0655 5.58818 16.5929 6.1008 17.2182C6.61805 17.8454 7.46523 17.5112 8.02477 17.3374C7.80882 17.8926 7.34661 18.491 7.94045 19.1617C8.53336 19.8372 9.90356 19.5246 10.5728 18.8861C11.2403 18.2476 11.3044 17.2357 10.7173 16.63C10.312 16.2144 9.70775 16.1177 9.1505 16.2925ZM21.3628 12.0436C16.5245 7.20535 18.8002 9.482 16.1965 6.87269C16.1965 6.87269 15.414 6.09367 14.3827 6.54619C13.6587 6.86344 12.7266 7.29582 12.0252 7.62592C11.2545 8.03005 10.6999 8.15514 10.4395 8.1534C8.94957 8.14365 7.74078 6.94613 7.74078 5.4577C7.74078 4.49212 8.2534 3.65148 9.01795 3.17429C10.093 2.43032 12.5677 1.11407 12.5677 1.11407C12.5677 1.11407 11.8138 0.158785 10.1623 0.158785C8.51137 0.158785 5.06201 2.41851 5.06201 2.41851C5.06201 2.41851 4.08348 3.04528 2.68857 2.48073L0 1.5445V10.8898C0 10.8898 0.767704 11.112 1.45751 11.3938C1.6133 10.9495 1.86469 10.5392 2.2134 10.2003C3.3578 9.11032 5.25466 9.099 6.29584 10.1711C6.6095 10.497 6.82839 10.8858 6.94009 11.3156C7.35962 11.4451 7.73964 11.6744 8.04502 11.9891C8.3596 12.3128 8.57767 12.7038 8.6903 13.1314C9.10934 13.261 9.48881 13.4912 9.79523 13.8061C10.1403 14.1619 10.3702 14.5918 10.4775 15.0575C10.9156 15.185 11.3114 15.4224 11.6302 15.7484C12.256 16.3911 12.4781 17.2631 12.3435 18.1043C12.3446 18.1043 12.3467 18.1043 12.3477 18.1062C12.3579 18.1196 12.7353 18.5403 12.9707 18.7777C13.432 19.2394 14.1852 19.2394 14.6479 18.7777C15.1076 18.3161 15.1096 17.5644 14.6479 17.1005C14.6314 17.084 12.9837 15.3605 13.1163 15.2269C13.248 15.0942 15.3472 17.2785 15.3862 17.3184C15.8469 17.7792 16.5997 17.7792 17.0624 17.3184C17.5241 16.8569 17.5231 16.1051 17.0624 15.6423C17.0398 15.6207 16.9453 15.5302 16.9102 15.4942C16.9102 15.4942 14.8289 13.6401 14.9873 13.4817C15.1477 13.3223 17.733 15.7349 17.7371 15.7349C18.2019 16.1534 18.9177 16.1503 19.3648 15.703C19.7998 15.2681 19.8091 14.5801 19.4235 14.1164C19.4153 14.0918 17.4532 12.0413 17.6063 11.887C17.7617 11.7307 19.7031 13.7298 19.7072 13.734C20.1669 14.1946 20.9206 14.1946 21.3834 13.734C21.8441 13.2732 21.8441 12.5205 21.3834 12.0557C21.3771 12.0518 21.3689 12.0477 21.3628 12.0436Z" fill="url(#paint0_linear)"/>
<defs>
<linearGradient id="paint0_linear" x1="40.4691" y1="9.78811" x2="21.9477" y2="-15.8313" gradientUnits="userSpaceOnUse">
<stop stop-color="#4E70B6"/>
<stop offset="1" stop-color="#E2D7AA"/>
</linearGradient>
</defs>
</svg>
