<svg width="27" height="27" viewBox="0 0 27 27" fill="none" xmlns="http://www.w3.org/2000/svg">
<path fill-rule="evenodd" clip-rule="evenodd" d="M1.68272 13.4741C2.22714 13.4741 2.76004 13.2109 3.08567 12.7241L3.44751 12.1813C3.62846 12.9165 4.26167 13.4741 5.05278 13.4741C5.98372 13.4741 6.73699 12.7207 6.73699 11.7898C6.73699 12.7208 7.4903 13.4741 8.4212 13.4741C9.35209 13.4741 10.1054 12.7207 10.1054 11.7898C10.1054 12.7208 10.8587 13.4741 11.7896 13.4741C12.7205 13.4741 13.4738 12.7207 13.4738 11.7898C13.4738 12.7208 14.2271 13.4741 15.158 13.4741C16.0889 13.4741 16.8422 12.7207 16.8422 11.7898C16.8422 12.7208 17.5955 13.4741 18.5265 13.4741C19.4574 13.4741 20.2107 12.7207 20.2107 11.7898C20.2107 12.7208 20.9639 13.4741 21.8949 13.4741C22.6876 13.4741 23.3192 12.9165 23.5001 12.1813L23.862 12.7241C24.186 13.2109 24.7205 13.4741 25.2649 13.4741C25.5857 13.4741 25.9097 13.3819 26.1975 13.1912C26.9722 12.6747 27.1811 11.6286 26.6646 10.8556L23.5791 6.73721H16.8422V5.053H18.5265C19.4574 5.053 20.2107 4.29968 20.2107 3.36879V1.68458C20.2107 0.753629 19.4574 0.000366211 18.5265 0.000366211H8.4212C7.49025 0.000366211 6.73699 0.753682 6.73699 1.68458V3.36879C6.73699 4.29973 7.4903 5.053 8.4212 5.053H10.1054V6.73721H3.36857L0.283039 10.8556C-0.233435 11.6287 -0.0229083 12.6747 0.750144 13.1912C1.0363 13.3819 1.36193 13.4741 1.68272 13.4741ZM16.4211 1.26352H18.5264V2.52668H16.8422V3.36879H16.4211V1.26352ZM13.4738 1.26352H15.579V3.36879H13.4738V1.26352ZM10.9475 1.26352H11.3685V2.10563H12.2106V1.26352H12.6317V3.36879H12.2106V2.52668H11.3685V3.36879H10.9475V1.26352ZM8.42114 3.36879V2.94773H9.6843V2.52668H8.42114V1.26352H10.1054V1.68458H8.8422V2.10563H10.1054V3.36879H8.42114ZM11.7896 5.053H15.158V6.73721H11.7896V5.053ZM26.9475 26.9477H9.17555e-05C9.17555e-05 25.553 1.13167 24.4214 2.52641 24.4214H24.4211C25.8159 24.4214 26.9475 25.553 26.9475 26.9477ZM5.05272 14.3162H3.36851V21.8951V23.5793H23.579V21.8951V14.3162H21.8948H5.05272ZM5.05272 21.8951V16.0004H10.1054V21.8951H5.05272ZM11.7896 21.8951V16.0004H21.8948V21.8951H11.7896ZM7.57904 18.5267C7.57904 18.9922 7.20241 19.3688 6.73693 19.3688C6.27146 19.3688 5.89483 18.9922 5.89483 18.5267C5.89483 18.0612 6.27146 17.6846 6.73693 17.6846C7.20241 17.6846 7.57904 18.0612 7.57904 18.5267ZM18.1054 2.10563H16.8422V1.68458H18.1054V2.10563ZM13.8948 1.68458H15.158V2.94773H13.8948V1.68458Z" fill="url(#paint0_linear)"/>
<defs>
<linearGradient id="paint0_linear" x1="37.5511" y1="16.5091" x2="16.6739" y2="-4.69698" gradientUnits="userSpaceOnUse">
<stop stop-color="#A62374"/>
<stop offset="1" stop-color="#CDCC45"/>
</linearGradient>
</defs>
</svg>
