<svg width="27" height="26" viewBox="0 0 27 26" fill="none" xmlns="http://www.w3.org/2000/svg">
<path fill-rule="evenodd" clip-rule="evenodd" d="M21.4102 23.7305H18.8159L18.2885 22.1484H8.71147L8.18413 23.7305H5.58984C5.15273 23.7305 4.79883 24.0844 4.79883 24.5215C4.79883 24.9586 5.15273 25.3125 5.58984 25.3125H21.4102C21.8473 25.3125 22.2012 24.9586 22.2012 24.5215C22.2012 24.0844 21.8473 23.7305 21.4102 23.7305Z" fill="url(#paint0_linear)"/>
<path fill-rule="evenodd" clip-rule="evenodd" d="M21.4102 4.74609C20.9737 4.74609 20.6191 5.10061 20.6191 5.53711C20.6191 5.97361 20.9737 6.32812 21.4102 6.32812C21.8467 6.32812 22.2012 5.97361 22.2012 5.53711C22.2012 5.10061 21.8467 4.74609 21.4102 4.74609Z" fill="url(#paint1_linear)"/>
<path fill-rule="evenodd" clip-rule="evenodd" d="M24.5742 0H2.37305C1.06458 0 0 1.06458 0 2.37305V15.8203H4.79883V13.4473C4.79883 13.0101 5.15273 12.6562 5.58984 12.6562H6.812C6.89378 12.4262 6.9873 12.2004 7.09319 11.9787L6.22863 11.1136C5.91964 10.8046 5.91964 10.304 6.22863 9.99502L8.46572 7.75793C8.77471 7.44894 9.27528 7.44894 9.58427 7.75793L10.4494 8.6231C10.6711 8.51722 10.8967 8.42308 11.127 8.34109V7.11914C11.127 6.68202 11.4809 6.32812 11.918 6.32812H15.082C15.5191 6.32812 15.873 6.68202 15.873 7.11914V8.3413C16.1031 8.42308 16.3289 8.51743 16.5506 8.6231L17.4157 7.75793C17.7247 7.44914 18.2253 7.44914 18.5343 7.75793L20.7714 9.99502C21.0804 10.304 21.0804 10.8048 20.7714 11.1136L19.9068 11.9787C20.0127 12.2006 20.1062 12.4262 20.188 12.6562H21.4102C21.8473 12.6562 22.2012 13.0101 22.2012 13.4473V15.8203H27V2.37305C27 1.06458 25.8827 0 24.5742 0ZM21.4102 7.91016C20.1017 7.91016 19.0371 6.84558 19.0371 5.53711C19.0371 4.22864 20.1017 3.16406 21.4102 3.16406C22.7186 3.16406 23.7832 4.22864 23.7832 5.53711C23.7832 6.84558 22.7186 7.91016 21.4102 7.91016Z" fill="url(#paint2_linear)"/>
<path fill-rule="evenodd" clip-rule="evenodd" d="M11.127 15.0293C11.127 15.3027 11.19 15.5663 11.2804 15.8203H15.7196C15.81 15.5663 15.873 15.3027 15.873 15.0293C15.873 13.7208 14.8085 12.6562 13.5 12.6562C12.1913 12.6562 11.127 13.7208 11.127 15.0293H11.127Z" fill="url(#paint3_linear)"/>
<path fill-rule="evenodd" clip-rule="evenodd" d="M8.16209 13.645C8.07186 13.9942 7.75669 14.2383 7.39579 14.2383H6.38086V15.8203H9.64895C9.5958 15.5597 9.54492 15.2979 9.54492 15.0293C9.54492 12.8486 11.3194 11.0742 13.5 11.0742C15.6806 11.0742 17.4551 12.8486 17.4551 15.0293C17.4551 15.2979 17.4042 15.5597 17.3511 15.8203H20.6191V14.2383H19.6042C19.2433 14.2383 18.9281 13.9942 18.8379 13.645C18.7118 13.1545 18.5149 12.6801 18.2523 12.2352C18.0691 11.9248 18.1194 11.5293 18.3742 11.2742L19.0936 10.5543L17.975 9.43575L17.2551 10.1557C17 10.4115 16.6037 10.4624 16.2933 10.277C15.8492 10.0152 15.3756 9.81745 14.8843 9.69138C14.5351 9.60116 14.291 9.28599 14.291 8.92509V7.91016H12.709V8.92509C12.709 9.28599 12.4649 9.60116 12.1157 9.69138C11.6244 9.81745 11.1508 10.0152 10.7067 10.277C10.3977 10.4624 10.0006 10.4115 9.74494 10.1557L9.02499 9.43575L7.90645 10.5543L8.62578 11.2742C8.88059 11.5293 8.93085 11.9248 8.74773 12.2352C8.48508 12.6801 8.28815 13.1545 8.16209 13.645Z" fill="url(#paint4_linear)"/>
<path fill-rule="evenodd" clip-rule="evenodd" d="M0 18.1934C0 19.5018 1.06458 20.5664 2.37305 20.5664H24.5742C25.8827 20.5664 27 19.5018 27 18.1934V17.4023H0V18.1934Z" fill="url(#paint5_linear)"/>
<defs>
<linearGradient id="paint0_linear" x1="4.79883" y1="22.1484" x2="4.79883" y2="25.3125" gradientUnits="userSpaceOnUse">
<stop stop-color="#FAD961"/>
<stop offset="1" stop-color="#F76B1C"/>
</linearGradient>
<linearGradient id="paint1_linear" x1="20.6191" y1="4.74609" x2="20.6191" y2="6.32812" gradientUnits="userSpaceOnUse">
<stop stop-color="#FAD961"/>
<stop offset="1" stop-color="#F76B1C"/>
</linearGradient>
<linearGradient id="paint2_linear" x1="0" y1="0" x2="0" y2="15.8203" gradientUnits="userSpaceOnUse">
<stop stop-color="#FAD961"/>
<stop offset="1" stop-color="#F76B1C"/>
</linearGradient>
<linearGradient id="paint3_linear" x1="11.127" y1="12.6562" x2="11.127" y2="15.8203" gradientUnits="userSpaceOnUse">
<stop stop-color="#FAD961"/>
<stop offset="1" stop-color="#F76B1C"/>
</linearGradient>
<linearGradient id="paint4_linear" x1="6.38086" y1="7.91016" x2="6.38086" y2="15.8203" gradientUnits="userSpaceOnUse">
<stop stop-color="#FAD961"/>
<stop offset="1" stop-color="#F76B1C"/>
</linearGradient>
<linearGradient id="paint5_linear" x1="0" y1="17.4023" x2="0" y2="20.5664" gradientUnits="userSpaceOnUse">
<stop stop-color="#FAD961"/>
<stop offset="1" stop-color="#F76B1C"/>
</linearGradient>
</defs>
</svg>
